<svg width="220" height="56" viewBox="0 0 220 56" fill="none" xmlns="http://www.w3.org/2000/svg">
  <defs>
    <linearGradient id="nebulaPrimary" x1="8" y1="6" x2="48" y2="50" gradientUnits="userSpaceOnUse">
      <stop stop-color="#0EA5E9"/>
      <stop offset="1" stop-color="#2563EB"/>
    </linearGradient>
  </defs>
  <rect x="2" y="2" width="52" height="52" rx="14" fill="#0F172A"/>
  <circle cx="28" cy="28" r="14" stroke="url(#nebulaPrimary)" stroke-width="5"/>
  <circle cx="40" cy="18" r="4" fill="#38BDF8"/>
  <path d="M66 18H94C100 18 104 21.2 104 26.3C104 31.4 100 34.6 94 34.6H73.2V44H66V18ZM93 28.7C95.7 28.7 97.1 27.7 97.1 26.3C97.1 24.8 95.7 23.8 93 23.8H73.2V28.7H93Z" fill="#0F172A"/>
  <path d="M108.7 18H116.2L130.8 44H123.1L120.3 38.6H104.4L101.6 44H94.2L108.7 18ZM117.9 33L112.4 22.7L106.9 33H117.9Z" fill="#0F172A"/>
  <path d="M132.7 18H140.2V38.1H159.6V44H132.7V18Z" fill="#0F172A"/>
  <path d="M162.8 18H170.4V44H162.8V18Z" fill="#0F172A"/>
  <path d="M175 18H183.1L196.8 35.1V18H204.1V44H196.9L182.3 25.8V44H175V18Z" fill="#0F172A"/>
</svg>
